<?xml version="1.0" encoding="UTF-8"?><svg id="Layer_2" xmlns="http://www.w3.org/2000/svg" viewBox="0 0 733.8767 221.4952"><g id="Components"><g id="e176170f-588c-415d-9371-b1f3a6eebe5e_5"><path d="M57.8877,38.2907c4.0482-6.3614,10.0904-11.9421,15.2339-16.429-.0096,6.7237-.0276,13.4475-.0478,20.1712-.0059,1.9201-.0105,3.8711-.0162,5.8036l-15.1698-9.5458Z" style="fill:#fff;"/><path d="M98.3859,203.4736c2.1455,1.4124,4.3445,2.7354,6.5793,3.969l-12.1574,14.0526c-.2681-.1608-.5363-.3218-.8046-.5005-11.1204-6.7045-21.1146-15.1074-29.6249-24.8513l11.8893-14.1956c6.8832,8.3315,15.0181,15.6081,24.1182,21.5259Z" style="fill:#fff;"/><path d="M55.5131,148.4432c3.2002,9.4042,7.6699,18.2004,13.2123,26.2279l-12.0681,14.3924c-7.1693-9.4936-12.9978-20.0241-17.2171-31.3413l16.0729-9.279Z" style="fill:#fff;"/><path d="M49.8456,114.1878c0,8.7605,1.0727,17.2707,3.0751,25.4233l-16.3768,9.44c-3.0036-10.2981-4.7021-21.1325-4.9166-32.3425l18.2361-3.2181c-.0178.2324-.0178.4649-.0178.6973Z" style="fill:#fff;"/><path d="M36.8836,78.1624l18.1288,3.2002c-2.3778,7.3482-3.9869,15.036-4.7199,22.9741l-18.5223,3.2717c.5185-10.1907,2.2885-20.0419,5.1134-29.446Z" style="fill:#fff;"/><path d="M52.5452,45.0512l15.8584,9.1538c-4.0049,5.8284-7.4197,12.0681-10.1908,18.6475l-18.3793-3.2539c3.3254-8.6891,7.6163-16.9132,12.7117-24.5474Z" style="fill:#fff;"/><path d="M73.9101,127.4895l-12.5507,7.2408c-1.4482-6.6151-2.1991-13.4983-2.1991-20.5425,0-.7867.0179-1.5554.0358-2.3421v-.3934c.3933.0715.7509.1431,1.1085.1966,5.6675,1.0549,6.9011,1.3052,12.5329,2.5388,0,4.5232.3576,8.975,1.0727,13.3017Z" style="fill:#fff;"/><path d="M84.2261,156.2026l-9.2611,11.049c-4.7379-7.2408-8.546-15.1611-11.2278-23.564l12.1753-7.0264c1.9309,6.9191,4.7379,13.4626,8.3136,19.5414Z" style="fill:#fff;"/><path d="M106.5207,181.1431l-4.8629,13.3196c-8.0633-5.4887-15.2326-12.1574-21.2935-19.7737l8.993-10.7093c4.8629,6.5078,10.6557,12.3005,17.1634,17.1634Z" style="fill:#fff;"/><path d="M114.1728,186.2028c7.6163,4.4875,16.0014,7.795,24.9049,9.6724v13.9453c-10.5662-1.8951-20.5604-5.5245-29.6607-10.5663l4.7558-13.0514Z" style="fill:#fff;"/><path d="M176.2295,195.2673l4.702,12.9262c-7.8665,2.074-16.1085,3.1645-24.6009,3.1645-2.807,0-5.5781-.1252-8.3136-.3576v-13.7487c2.7355.2682,5.5066.4113,8.3136.4113,6.8474,0,13.5162-.8225,19.8989-2.3958Z" style="fill:#fff;"/><path d="M231.528,175.6723l-.7152.8582c-1.8058,2.1453-3.683,4.2193-5.6675,6.1859-2.1097,2.1276-4.3088,4.1479-6.5972,6.043-8.5639,7.1693-18.3972,12.8905-29.0885,16.7701l-4.6663-12.8547c9.1717-3.3433,17.6104-8.242,24.9586-14.3923.2145-.1787.4291-.3576.6436-.5363.8046-.6615,1.5912-1.3588,2.36-2.074h18.7725Z" style="fill:#fff;"/><path d="M308.0811,134.6583l.191.6681-.3831.6691h-22.8085l-.3831-.6691.192-.6681c4.0849-.3201,6.1944-1.2783,6.3245-2.8767l.096-1.2453c.062-1.2081-.2964-2.7704-1.0791-4.6837l-7.578-17.9337h-21.8854l-6.6322,15.4287c-1.2226,2.8137-1.8308,4.9254-1.8308,6.3245,0,2.7446,2.2686,4.406,6.8047,4.9863l.191.6681-.38.6691h-18.9776l-.3841-.6691.192-.6681c3.8959-.8292,7.3148-4.5671,10.2555-11.2158l20.2188-45.6149.3852-2.6816.4801-.8643c.7001-.19,1.3733-.2932,2.0114-.2932h.5751c.8942,0,1.7864.1032,2.6847.2932l1.3393,2.4885,21.4672,49.4519c2.2996,5.3652,5.2723,8.1759,8.9132,8.4361M281.5533,104.6579l-9.7279-21.9236-9.7175,21.9236h19.4454Z" style="fill:#fff;"/><path d="M327.9172,87.3105v37.567c0,2.9428.4481,4.9574,1.3423,6.0374,1.0243,1.3444,2.9397,2.0176,5.7514,2.0176h8.241c9.4563,0,16.1618-2.8158,20.1269-8.4361l1.3403-1.9185c.191-.1249.3511-.191.4801-.191l.3831.0991c.3191.0589.5101.2509.5741.5731l-5.7504,12.8442-48.3006.0919-.5731-.6691.3821-.6681c3.1927-.3883,5.3663-1.4683,6.5165-3.2598.9593-1.4683,1.4384-3.9,1.4384-7.2827v-36.805c0-3.3806-.3201-5.7174-.9592-6.9936-.9582-1.9154-2.8757-3.0967-5.7504-3.5469l-.2881-.6681.4822-.6743h22.7125l.571.6743-.381.6681c-3.3238.3831-5.5418,1.3589-6.6611,2.9242-1.1172,1.5643-1.6779,4.1096-1.6779,7.6163" style="fill:#fff;"/><path d="M386.5702,87.3105v37.567c0,2.9428.4471,4.9574,1.3413,6.0374,1.0212,1.3444,2.9377,2.0176,5.7504,2.0176h8.2409c9.4573,0,16.1639-2.8158,20.1259-8.4361l1.3434-1.9185c.19-.1249.3459-.191.4812-.191l.381.0991c.317.0589.509.2509.5731.5731l-5.7483,12.8442-48.3037.0919-.5741-.6691.3841-.6681c3.1937-.3883,5.3663-1.4683,6.5166-3.2598.9603-1.4683,1.4373-3.9,1.4373-7.2827v-36.805c0-3.3806-.3201-5.7174-.9582-6.9936-.9551-1.9154-2.8736-3.0967-5.7514-3.5469l-.287-.6681.4812-.6743h22.7135l.5741.6743-.3852.6681c-3.3218.3831-5.5418,1.3589-6.658,2.9242-1.1193,1.5643-1.6779,4.1096-1.6779,7.6163" style="fill:#fff;"/><path d="M445.3156,124.115c0,3.2505.3511,5.5872,1.0512,6.9967.9634,1.9123,2.8819,3.0936,5.7535,3.5469l.2891.667-.4781.6701h-20.9891l-.4812-.6701.2912-.667c2.8127-.4533,4.66-1.6346,5.5573-3.5469.6371-1.3403.9541-3.6749.9541-6.9967v-36.805c0-3.2526-.3459-5.5893-1.0532-6.9936-.9551-1.9154-2.8726-3.0967-5.7494-3.5469l-.284-.667.476-.6753h20.9912l.476.6753-.287.667c-2.8148.4502-4.6662,1.6315-5.5563,3.5469-.6412,1.3403-.9613,3.677-.9613,6.9936v36.805Z" style="fill:#fff;"/><path d="M525.6273,134.6583l.1879.6681-.382.6691h-22.8064l-.382-.6691.19-.6681c4.0869-.3201,6.1934-1.2783,6.3235-2.8767l.0929-1.2453c.0661-1.2081-.2943-2.7704-1.0708-4.6837l-7.578-17.9337h-21.8864l-6.6343,15.4287c-1.2215,2.8137-1.8328,4.9254-1.8328,6.3245,0,2.7446,2.2706,4.406,6.8067,4.9863l.19.6681-.379.6691h-18.9807l-.3821-.6691.1921-.6681c3.8969-.8292,7.3158-4.5671,10.2545-11.2158l20.2219-45.6149.3831-2.6816.4812-.8643c.6959-.19,1.3723-.2932,2.0125-.2932h.5721c.8932,0,1.7905.1032,2.6826.2932l1.3403,2.4885,21.4724,49.4519c2.2964,5.3652,5.2682,8.1759,8.9111,8.4361M499.0984,104.6579l-9.7258-21.9236-9.7175,21.9236h19.4433Z" style="fill:#fff;"/><path d="M589.5464,122.3867v-35.0765c0-3.4447-.5142-5.9073-1.5344-7.3798-1.1482-1.7213-3.3858-2.7766-6.7096-3.1607l-.381-.6681.6702-.6743h19.1707l.5731.6743-.3841.6681c-3.1328.3841-5.2413,1.5034-6.3234,3.3548-.8952,1.4095-1.3424,3.805-1.3424,7.1857v48.9718c-.1951.5782-.509.8643-.9644.8643-.3883,0-.9634-.286-1.7306-.857l-5.9755-6.5703-44.0361-46.7249v41.1191c0,3.4426.474,5.9115,1.4332,7.3746,1.1523,1.7285,3.3589,2.7817,6.6146,3.17l.3862.6681-.6722.6701h-18.9766l-.6722-.6701.3831-.6681c3.1297-.3883,5.2723-1.4673,6.4236-3.2598.8921-1.4683,1.3403-3.9,1.3403-7.2827v-41.7861l-1.2453-1.6294c-1.0233-1.7275-2.9408-3.0327-5.7494-3.93l-.2912-.6681.4853-.6743h14.8525c9.9674,10.3515,24.853,26.0084,44.6557,46.9593" style="fill:#fff;"/><path d="M617.3375,105.3281c0,8.2461,2.4648,15.1767,7.3798,20.7929,5.1112,6.0137,11.7218,9.0113,19.8409,9.0113,11.3077,0,19.3246-4.6982,24.0548-14.0884l2.3016,3.647c-1.0275,3.0657-2.1457,5.6554-3.3579,7.7629l-1.0481-.0991c-6.1985,3.454-13.8365,5.1753-22.9076,5.1753-10.1595,0-18.5305-2.7126-25.1132-8.147-7.1547-5.8072-10.7326-13.6733-10.7326-23.5767,0-9.8373,3.706-17.7241,11.1167-23.6738,6.9058-5.4902,15.3657-8.2368,25.4043-8.2368,8.0406,0,15.6456,1.9815,22.7981,5.9404l.9634-.284h.7641l-.7641,11.3025c-.2581.2612-.4812.3882-.6774.3882-.381-.0661-.729-.2272-1.047-.4781-3.6429-9.6453-11.0537-14.4756-22.2365-14.4756-8.6199,0-15.2966,2.7539-20.0278,8.244-4.4721,5.1143-6.7117,12.0439-6.7117,20.795" style="fill:#fff;"/><path d="M676.7599,135.9958l-.6722-.6701.381-.667c3.6419-.3893,6.1015-1.3289,7.3798-2.8293,1.2742-1.5034,1.9175-4.0725,1.9175-7.7143v-36.804c0-3.3817-.381-5.7494-1.1523-7.0896-1.0212-1.8586-3.0358-3.0017-6.0333-3.4519l-.3831-.667.571-.6753h48.8768l2.0074,12.6552c-.1249.192-.3449.3201-.665.3831-.2561,0-.5143-.0351-.7713-.1012l-.3769-.5855c-2.1715-6.245-7.3158-9.3778-15.4277-9.3778h-17.6363c-.6413,0-.9614.031-.9614.0971v24.1477h14.4756c7.4696,0,11.8808-2.2706,13.2232-6.8046.253-.254.509-.4172.7631-.476l.8704.0919v17.6363l-1.5385-.2912c-1.4755-4.7891-5.9094-7.1826-13.3181-7.1826h-14.4756v19.2575c0,2.9439.4471,4.9584,1.3403,6.0374,1.0253,1.3455,2.9407,2.0177,5.7504,2.0177h11.5999c9.7093,0,16.2268-3.391,19.5538-10.1667l.3759-.4708c.9003,0,1.3712.1301,1.4425.379l-2.6847,13.2303-54.4321.0919Z" style="fill:#fff;"/><path d="M246.3977,14.2931c0-3.4023-.3067-5.8186-.919-7.2476-.951-2.1767-2.823-3.5014-5.6131-3.9795l-.3067-.7176.5122-.7125h22.0475l.5091.7125-.3056.7176c-3.1318.4781-5.2062,1.7006-6.2264,3.6728-.7496,1.428-1.1224,3.9444-1.1224,7.5543v16.6399h42.1558V14.2931c0-3.6099-.444-6.1603-1.3279-7.6545-1.0873-1.9774-3.2991-3.1648-6.6333-3.5727l-.4099-.7176.6144-.7125h23.0677l.5101.7125-.3056.7176c-2.9263.4781-4.8996,1.7709-5.9187,3.8783-.6835,1.428-1.0212,3.8794-1.0212,7.3488v39.1933c0,3.4715.3717,5.9579,1.1193,7.4562,1.0233,2.0403,3.0647,3.3001,6.1263,3.773l.3087.7176-.5142.7156h-23.0666l-.6123-.7156.4058-.7176c3.1989-.4729,5.3415-1.7017,6.4319-3.6708.8168-1.4312,1.2257-3.9496,1.2257-7.5584v-19.3907h-42.1558v19.3907c0,3.6088.4048,6.1593,1.2236,7.6555,1.0873,1.9743,3.2319,3.1669,6.4309,3.5737l.3056.7176-.6113.7156h-21.9452l-.5111-.7156.3067-.7176c2.7198-.4729,4.5237-1.839,5.4097-4.0818.5452-1.3558.8157-3.74.8157-7.1475V14.2931Z" style="fill:#fff;"/><path d="M337.4457,53.4866c0,3.4705.3748,5.9579,1.1255,7.4552,1.0181,2.0414,3.0616,3.3011,6.1231,3.7741l.3067.7176-.5111.7156h-22.3541l-.5122-.7156.3098-.7176c2.9924-.4729,4.9657-1.7326,5.9187-3.7741.6794-1.4311,1.0202-3.9124,1.0202-7.4552V14.2933c0-3.4705-.3748-5.9559-1.1234-7.4531-1.0202-2.0383-3.0606-3.296-6.1252-3.7741l-.3036-.7176.5091-.7125h22.3552l.5101.7125-.3056.7176c-2.9955.4781-4.9698,1.7358-5.9228,3.7741-.6805,1.4311-1.0202,3.9093-1.0202,7.4531v39.1933Z" style="fill:#fff;"/><path d="M403.5911,48.3585c0,6.3359-2.8933,11.2778-8.6777,14.8184-4.9006,3.0688-10.6861,4.598-17.3514,4.598-6.8077,0-14.0574-1.6614-21.7429-4.9956l-1.1214.6113h-.9179l.4068-13.5783c.2716-.1332.5782-.2024.919-.2024.4089,0,.7135.1394.9179.4079.8168,4.7664,3.4344,8.5425,7.8569,11.3294,4.0167,2.5164,8.5755,3.7761,13.6816,3.7761,4.627,0,8.6065-1.015,11.9417-3.0616,3.8784-2.4482,5.8165-5.8516,5.8165-10.1997,0-6.5393-5.7514-11.6763-17.2481-15.4173-15.1076-4.9016-22.6608-11.3655-22.6608-19.3979,0-5.7153,2.6186-10.1027,7.8589-13.1643,4.3564-2.5876,9.5606-3.8825,15.6166-3.8825,6.3968,0,12.7615,1.4322,19.0871,4.2883l1.0212-.5122h.92l-.5091,11.3345c-.2065.2705-.444.4399-.7145.508-.2034,0-.444-.1714-.7176-.5132-1.1554-4.0456-3.8432-7.2352-8.0613-9.5668-3.7441-2.1302-7.8599-3.1906-12.3506-3.1906-3.8814,0-7.1124.919-9.701,2.7632-2.8551,2.0445-4.2852,4.9419-4.2852,8.686,0,6.0705,6.466,11.1466,19.3958,15.2356,13.7435,4.2934,20.6194,10.7367,20.6194,19.3256" style="fill:#fff;"/><path d="M428.0865,36.9532v16.5336c0,3.8143.6443,6.5321,1.9412,8.1666,1.2907,1.6325,3.8071,2.6558,7.5533,3.0626l.4068.7176-.6133.7156h-25.2103l-.6133-.7156.3057-.7176c3.1979-.4068,5.3415-1.6005,6.4329-3.5737.8147-1.4962,1.2226-4.0477,1.2226-7.6555V14.2934c0-3.6099-.4079-6.1603-1.2226-7.6545-1.0914-1.9774-3.235-3.1648-6.4329-3.5727l-.3057-.7176.6133-.7125,11.6371-.4109,16.8402-.1993c7.1485-.0692,13.3016,1.0171,18.4748,3.2629,6.8026,2.9934,10.2122,7.6565,10.2122,13.9851,0,6.1965-2.8303,10.9556-8.4764,14.2857-6.5981,3.8845-14.2557,5.5542-22.9685,5.01l-9.7971-.6165ZM428.0865,34.4048c2.3842.5411,5.0668.8106,8.0613.8106,6.3338,0,11.5359-1.1875,15.6218-3.5727,4.9625-2.8561,7.4531-7.2445,7.4531-13.1643,0-10.8916-7.4221-15.9925-22.255-15.3099l-8.8812.4068v30.8295Z" style="fill:#fff;"/><path d="M545.8803,64.7164l.2034.7176-.4089.7145h-24.2943l-.4079-.7145.2044-.7176c4.3533-.3408,6.6054-1.3589,6.7406-3.0574l.0971-1.3227c.0702-1.2938-.3149-2.9563-1.1513-4.9925l-8.0644-19.1036h-23.3155l-7.0607,16.4396c-1.3021,2.9862-1.9526,5.2382-1.9526,6.7313,0,2.9284,2.4193,4.6972,7.2466,5.3054l.2065.7176-.4099.7145h-20.2074l-.4099-.7145.2065-.7176c4.1499-.8808,7.7918-4.8644,10.9215-11.9386l21.5384-48.5918.4089-2.854.507-.919c.7507-.2045,1.4631-.3129,2.1446-.3129h.6133c.95,0,1.902.1084,2.853.3129l1.4332,2.6526,22.8612,52.6684c2.4482,5.7173,5.6141,8.7149,9.4966,8.9823M517.6229,32.7676l-10.3608-23.3496-10.3515,23.3496h20.7124Z" style="fill:#fff;"/><path d="M613.9612,51.6518V14.2933c0-3.6729-.5421-6.2966-1.6335-7.862-1.2247-1.8349-3.6057-2.9573-7.1485-3.3652l-.4047-.7176.7156-.7125h20.416l.6133.7125-.4099.7176c-3.3363.4079-5.58,1.5953-6.7386,3.5727-.951,1.4941-1.425,4.0446-1.425,7.6545v52.1583c-.2106.6175-.5514.9159-1.0274.9159-.41,0-1.0326-.2984-1.8421-.9066l-6.3669-7.0081-46.9046-49.7586v43.7924c0,3.6708.5018,6.2956,1.5313,7.861,1.2195,1.8421,3.5686,2.9614,7.0421,3.3683l.4089.7176-.7217.7156h-20.2095l-.7104-.7156.412-.7176c3.328-.4068,5.6131-1.5623,6.8325-3.4684.9562-1.5633,1.4353-4.153,1.4353-7.7608V8.9869l-1.3331-1.7399c-1.0852-1.8328-3.1349-3.2309-6.118-4.1809l-.3108-.7176.5091-.7125h15.821c10.619,11.0268,26.4721,27.6956,47.5675,50.0157" style="fill:#fff;"/><path d="M648.4624,53.4866c0,3.4705.3738,5.9579,1.1224,7.4552,1.0223,2.0414,3.0606,3.3011,6.1273,3.7741l.3026.7176-.5091.7156h-22.3521l-.5142-.7156.3056-.7176c2.9997-.4729,4.9718-1.7326,5.9187-3.7741.6867-1.4311,1.0254-3.9124,1.0254-7.4552V14.2933c0-3.4705-.3738-5.9559-1.1224-7.4531-1.0181-2.0383-3.0636-3.296-6.1272-3.7741l-.3005-.7176.5111-.7125h22.3531l.509.7125-.3128.7176c-2.9872.4781-4.9626,1.7358-5.9167,3.7741-.6815,1.4311-1.0202,3.9093-1.0202,7.4531v39.1933Z" style="fill:#fff;"/><path d="M675.8199,33.4814c0,8.78,2.6186,16.1628,7.863,22.1549,5.4365,6.3937,12.4817,9.5916,21.1234,9.5916,12.047,0,20.5822-4.9997,25.6201-15.0094l2.4534,3.8814c-1.0914,3.266-2.283,6.0261-3.5727,8.273l-1.1275-.1095c-6.5961,3.6791-14.7286,5.5119-24.3904,5.5119-10.8182,0-19.7345-2.8861-26.7457-8.6726-7.6183-6.1903-11.4347-14.5644-11.4347-25.108,0-10.4786,3.9465-18.8837,11.8426-25.2133C684.8054,2.9286,693.8166.0003,704.5017.0003c8.5756,0,16.6699,2.1147,24.2913,6.3276l1.0202-.3025h.8179l-.8179,12.047c-.2695.2674-.506.4068-.7166.4068-.4079-.0733-.7796-.2385-1.1152-.5111-3.8804-10.2762-11.7765-15.4184-23.6841-15.4184-9.1858,0-16.2981,2.9315-21.3339,8.782-4.7612,5.4479-7.1434,12.8297-7.1434,22.1497" style="fill:#fff;"/><path d="M252.5612,156.9335l3.4326,1.0884c-.5264,1.9141-1.4014,3.3354-2.626,4.2642-1.2236.9292-2.7764,1.3936-4.6592,1.3936-2.3281,0-4.2422-.7954-5.7412-2.3862-1.499-1.5908-2.249-3.7656-2.249-6.5249,0-2.9189.7539-5.1855,2.2607-6.8003,1.5078-1.6152,3.4893-2.4224,5.9453-2.4224,2.1445,0,3.8877.6338,5.2275,1.9019.7969.7495,1.3955,1.8262,1.7939,3.2295l-3.5049.8374c-.207-.9092-.6396-1.627-1.2979-2.1528-.6582-.5264-1.457-.7896-2.3984-.7896-1.2998,0-2.3545.4663-3.1641,1.3994s-1.2139,2.4443-1.2139,4.5337c0,2.2168.3984,3.7959,1.1963,4.7368.7969.9409,1.834,1.4111,3.1104,1.4111.9404,0,1.75-.2988,2.4277-.897s1.1641-1.5391,1.46-2.8228Z" style="fill:#fff;"/><path d="M257.9607,156.8495c0-1.1162.2754-2.1968.8262-3.2417.5498-1.0444,1.3291-1.8418,2.3379-2.3921,1.0088-.5503,2.1357-.8257,3.3799-.8257,1.9209,0,3.4961.624,4.7246,1.8721,1.2275,1.248,1.8418,2.8252,1.8418,4.731,0,1.9219-.6201,3.5151-1.8594,4.7788-1.2402,1.2642-2.8018,1.896-4.6836,1.896-1.1641,0-2.2744-.2632-3.3311-.7896-1.0566-.5264-1.8604-1.2979-2.4102-2.3145-.5508-1.0171-.8262-2.2549-.8262-3.7144ZM261.406,157.0292c0,1.2598.2988,2.2246.8975,2.8945.5977.6699,1.335,1.0049,2.2129,1.0049.877,0,1.6123-.335,2.207-1.0049.5938-.6699.8906-1.6426.8906-2.9185,0-1.2441-.2969-2.2012-.8906-2.8711-.5947-.6699-1.3301-1.0049-2.207-1.0049-.8779,0-1.6152.335-2.2129,1.0049-.5986.6699-.8975,1.6348-.8975,2.895Z" style="fill:#fff;"/><path d="M273.4333,163.3807v-17.5361h3.3613v17.5361h-3.3613Z" style="fill:#fff;"/><path d="M279.9704,163.3807v-17.5361h3.3613v17.5361h-3.3613Z" style="fill:#fff;"/><path d="M289.0192,154.5531l-3.0508-.5503c.3428-1.228.9336-2.1372,1.7705-2.7275.8379-.5898,2.082-.8853,3.7324-.8853,1.499,0,2.6152.1777,3.3496.5327.7334.3545,1.25.8052,1.5488,1.3516.2988.5464.4482,1.5488.4482,3.0083l-.0361,3.9233c0,1.1167.0547,1.9399.1621,2.4702s.3086,1.0986.6035,1.7046h-3.3252c-.0879-.2231-.1953-.5542-.3232-.9927-.0557-.1992-.0957-.3311-.1191-.395-.5742.5586-1.1885.9771-1.8418,1.2563-.6543.2788-1.3525.4185-2.0938.4185-1.3076,0-2.3389-.355-3.0918-1.0645-.7539-.71-1.1309-1.6069-1.1309-2.6914,0-.7178.1719-1.3579.5146-1.9199.3428-.5625.8232-.9932,1.4414-1.292.6182-.2988,1.5088-.5601,2.6729-.7837,1.5713-.2949,2.6602-.5698,3.2656-.8252v-.335c0-.646-.1592-1.1064-.4785-1.3813-.3184-.2754-.9209-.4131-1.8057-.4131-.5986,0-1.0645.1182-1.3994.353-.335.2354-.6064.6479-.8135,1.2383ZM293.5163,157.2802c-.4307.1436-1.1123.3149-2.0449.5146-.9336.1992-1.543.3945-1.8301.5859-.4385.311-.6582.7056-.6582,1.1841,0,.4707.1758.8774.5264,1.2202s.7979.5142,1.3398.5142c.6055,0,1.1846-.1992,1.7344-.5981.4072-.3027.6738-.6733.8018-1.1123.0869-.2871.1309-.833.1309-1.6387v-.6699Z" style="fill:#fff;"/><path d="M299.7194,163.3807v-17.5361h3.3613v6.3159c1.0361-1.1802,2.2646-1.7705,3.6836-1.7705,1.5469,0,2.8271.5605,3.8398,1.6807,1.0127,1.1206,1.5195,2.7295,1.5195,4.8267,0,2.1694-.5166,3.8398-1.5498,5.0122-1.0322,1.1724-2.2861,1.7583-3.7617,1.7583-.7256,0-1.4414-.1816-2.1465-.5444-.7061-.3628-1.3145-.8989-1.8242-1.6089v1.8662h-3.1221ZM303.0564,156.7538c0,1.3159.207,2.2891.6221,2.9189.582.8931,1.3555,1.3394,2.3203,1.3394.7422,0,1.374-.3169,1.8965-.9507.5215-.6343.7832-1.6328.7832-2.9966,0-1.4512-.2627-2.498-.7891-3.1401-.5264-.6416-1.2002-.9629-2.0215-.9629-.8057,0-1.4756.3135-2.0098.939-.5342.6265-.8018,1.5771-.8018,2.853Z" style="fill:#fff;"/><path d="M313.779,156.8495c0-1.1162.2754-2.1968.8262-3.2417.5498-1.0444,1.3291-1.8418,2.3379-2.3921s2.1357-.8257,3.3799-.8257c1.9209,0,3.4961.624,4.7246,1.8721,1.2275,1.248,1.8418,2.8252,1.8418,4.731,0,1.9219-.6201,3.5151-1.8594,4.7788-1.2402,1.2642-2.8018,1.896-4.6836,1.896-1.1641,0-2.2744-.2632-3.3311-.7896-1.0566-.5264-1.8604-1.2979-2.4102-2.3145-.5508-1.0171-.8262-2.2549-.8262-3.7144ZM317.2243,157.0292c0,1.2598.2988,2.2246.8975,2.8945.5977.6699,1.335,1.0049,2.2129,1.0049.877,0,1.6123-.335,2.207-1.0049.5937-.6699.8906-1.6426.8906-2.9185,0-1.2441-.2969-2.2012-.8906-2.8711-.5947-.6699-1.3301-1.0049-2.207-1.0049-.8779,0-1.6152.335-2.2129,1.0049-.5986.6699-.8975,1.6348-.8975,2.895Z" style="fill:#fff;"/><path d="M332.4694,163.3807h-3.3613v-12.7036h3.1221v1.8062c.5342-.853,1.0146-1.415,1.4414-1.6865.4258-.271.9102-.4067,1.4531-.4067.7656,0,1.5029.2114,2.2129.6343l-1.041,2.9307c-.5664-.3667-1.0928-.5503-1.5791-.5503-.4707,0-.8691.1294-1.1963.3887-.3262.2593-.584.728-.7715,1.4053-.1875.6782-.2803,2.0977-.2803,4.2588v3.9233Z" style="fill:#fff;"/><path d="M341.0271,154.5531l-3.0508-.5503c.3428-1.228.9336-2.1372,1.7705-2.7275.8379-.5898,2.082-.8853,3.7324-.8853,1.499,0,2.6152.1777,3.3496.5327.7334.3545,1.25.8052,1.5488,1.3516s.4482,1.5488.4482,3.0083l-.0361,3.9233c0,1.1167.0547,1.9399.1621,2.4702s.3086,1.0986.6035,1.7046h-3.3252c-.0879-.2231-.1953-.5542-.3232-.9927-.0557-.1992-.0957-.3311-.1191-.395-.5742.5586-1.1885.9771-1.8418,1.2563-.6543.2788-1.3525.4185-2.0937.4185-1.3076,0-2.3389-.355-3.0918-1.0645-.7539-.71-1.1309-1.6069-1.1309-2.6914,0-.7178.1719-1.3579.5146-1.9199.3428-.5625.8232-.9932,1.4414-1.292.6182-.2988,1.5088-.5601,2.6729-.7837,1.5713-.2949,2.6602-.5698,3.2656-.8252v-.335c0-.646-.1592-1.1064-.4785-1.3813-.3184-.2754-.9209-.4131-1.8057-.4131-.5986,0-1.0645.1182-1.3994.353-.335.2354-.6064.6479-.8135,1.2383ZM345.5241,157.2802c-.4307.1436-1.1123.3149-2.0449.5146-.9336.1992-1.543.3945-1.8301.5859-.4385.311-.6582.7056-.6582,1.1841,0,.4707.1758.8774.5264,1.2202s.7979.5142,1.3398.5142c.6055,0,1.1846-.1992,1.7344-.5981.4072-.3027.6738-.6733.8018-1.1123.0869-.2871.1309-.833.1309-1.6387v-.6699Z" style="fill:#fff;"/><path d="M357.697,150.6771v2.6797h-2.2969v5.1196c0,1.0366.0215,1.6406.0654,1.812.0439.1719.1436.313.2998.4248.1553.1118.3447.1675.5674.1675.3115,0,.7617-.1079,1.3525-.3228l.2871,2.6074c-.7822.335-1.667.5024-2.6562.5024-.6055,0-1.1523-.1016-1.6387-.3052-.4863-.2031-.8428-.4663-1.0703-.7896-.2275-.3228-.3848-.7593-.4727-1.3096-.0713-.3906-.1074-1.1802-.1074-2.3687v-5.5381h-1.543v-2.6797h1.543v-2.5239l3.373-1.9614v4.4854h2.2969Z" style="fill:#fff;"/><path d="M359.7605,148.955v-3.1104h3.3613v3.1104h-3.3613ZM359.7605,163.3807v-12.7036h3.3613v12.7036h-3.3613Z" style="fill:#fff;"/><path d="M377.8523,163.3807h-3.3613v-6.4834c0-1.3716-.0713-2.2588-.2148-2.6616-.1436-.4023-.377-.7153-.7002-.939-.3232-.2231-.7119-.335-1.166-.335-.582,0-1.1045.1597-1.5674.4785-.4629.3193-.7793.7417-.9512,1.2681-.1709.5264-.2568,1.4995-.2568,2.9189v5.7534h-3.3613v-12.7036h3.1221v1.8662c1.1084-1.4355,2.5039-2.1533,4.1865-2.1533.7422,0,1.4199.1338,2.0332.4009.6143.2671,1.0791.6084,1.3936,1.0229.3154.4146.5342.8848.6582,1.4111.124.5264.1855,1.2803.1855,2.2607v7.895Z" style="fill:#fff;"/><path d="M380.6804,164.2182l3.8398.4663c.0635.4468.2109.7539.4424.9214.3193.2393.8213.3589,1.5078.3589.877,0,1.5342-.1318,1.9736-.395.2949-.1753.5176-.4585.6699-.8491.1035-.2793.1553-.7939.1553-1.543v-1.8545c-1.0049,1.3721-2.2725,2.0576-3.8037,2.0576-1.707,0-3.0586-.7217-4.0557-2.165-.7812-1.1401-1.1719-2.5601-1.1719-4.2583,0-2.1294.5127-3.7563,1.5371-4.8804,1.0244-1.1245,2.2988-1.687,3.8213-1.687,1.5713,0,2.8672.6899,3.8877,2.0693v-1.7822h3.1465v11.3999c0,1.499-.124,2.6196-.3711,3.3613-.2471.7412-.5938,1.3232-1.041,1.7461-.4463.4229-1.042.7539-1.7881.9932-.7451.2393-1.6885.3589-2.8291.3589-2.1523,0-3.6797-.3691-4.5811-1.1064-.9014-.7378-1.3516-1.6729-1.3516-2.8052,0-.1118.0039-.2476.0117-.4067ZM383.6833,156.766c0,1.3477.2607,2.3345.7832,2.9604s1.166.939,1.9316.939c.8213,0,1.5146-.3208,2.0811-.9629s.8496-1.5928.8496-2.853c0-1.3159-.2715-2.2925-.8135-2.9307-.542-.6377-1.2275-.957-2.0576-.957-.8057,0-1.4688.3135-1.9912.939-.5225.6265-.7832,1.5811-.7832,2.8652Z" style="fill:#fff;"/><path d="M418.2126,163.3807h-3.8516l-1.5312-3.9834h-7.0098l-1.4473,3.9834h-3.7559l6.8301-17.5361h3.7441l7.0215,17.5361ZM411.6931,156.4428l-2.416-6.5073-2.3682,6.5073h4.7842Z" style="fill:#fff;"/><path d="M430.8737,154.4335l-3.3135.5981c-.1113-.6621-.3643-1.1606-.7598-1.4956-.3945-.335-.9072-.5024-1.5371-.5024-.8369,0-1.5049.2896-2.0029.8672-.499.5786-.748,1.5454-.748,2.9009,0,1.5073.2529,2.5718.7598,3.1938.5059.6221,1.1855.9331,2.0391.9331.6387,0,1.1602-.1812,1.5674-.5444.4062-.3628.6934-.9868.8613-1.8721l3.3018.5625c-.3438,1.5151-1.001,2.6597-1.9746,3.4331-.9727.7734-2.2764,1.1602-3.9111,1.1602-1.8584,0-3.3389-.5859-4.4434-1.7583s-1.6572-2.7949-1.6572-4.8687c0-2.0972.5547-3.73,1.6631-4.8984,1.1084-1.168,2.6074-1.7524,4.4971-1.7524,1.5469,0,2.7773.333,3.6904.999.9131.666,1.5693,1.6807,1.9678,3.0444Z" style="fill:#fff;"/><path d="M436.3708,163.3807h-3.3613v-12.7036h3.1221v1.8062c.5342-.853,1.0146-1.415,1.4414-1.6865.4258-.271.9102-.4067,1.4531-.4067.7656,0,1.5029.2114,2.2129.6343l-1.041,2.9307c-.5664-.3667-1.0928-.5503-1.5791-.5503-.4707,0-.8691.1294-1.1963.3887-.3262.2593-.584.728-.7715,1.4053-.1875.6782-.2803,2.0977-.2803,4.2588v3.9233Z" style="fill:#fff;"/><path d="M441.6384,156.8495c0-1.1162.2754-2.1968.8262-3.2417.5498-1.0444,1.3291-1.8418,2.3379-2.3921,1.0088-.5503,2.1357-.8257,3.3799-.8257,1.9209,0,3.4961.624,4.7246,1.8721,1.2275,1.248,1.8418,2.8252,1.8418,4.731,0,1.9219-.6201,3.5151-1.8594,4.7788-1.2402,1.2642-2.8018,1.896-4.6836,1.896-1.1641,0-2.2744-.2632-3.3311-.7896s-1.8604-1.2979-2.4102-2.3145c-.5508-1.0171-.8262-2.2549-.8262-3.7144ZM445.0837,157.0292c0,1.2598.2988,2.2246.8975,2.8945.5977.6699,1.335,1.0049,2.2129,1.0049.877,0,1.6123-.335,2.207-1.0049.5938-.6699.8906-1.6426.8906-2.9185,0-1.2441-.2969-2.2012-.8906-2.8711-.5947-.6699-1.3301-1.0049-2.207-1.0049-.8779,0-1.6152.335-2.2129,1.0049-.5986.6699-.8975,1.6348-.8975,2.895Z" style="fill:#fff;"/><path d="M455.9265,159.7562l3.373-.5142c.1436.6538.4346,1.1504.873,1.4893s1.0527.5083,1.8428.5083c.8691,0,1.5225-.1597,1.9609-.4785.2949-.2231.4434-.5225.4434-.897,0-.2554-.0801-.4668-.2393-.6343-.168-.1592-.543-.3066-1.125-.4424-2.7109-.5981-4.4297-1.1445-5.1553-1.6387-1.0049-.686-1.5068-1.6392-1.5068-2.8589,0-1.1006.4346-2.0259,1.3037-2.7754s2.2168-1.1245,4.043-1.1245c1.7383,0,3.0303.2832,3.876.8496.8447.5664,1.4268,1.4033,1.7461,2.5117l-3.1699.5864c-.1357-.4946-.3926-.8735-.7715-1.1367s-.9189-.3945-1.6211-.3945c-.8848,0-1.5186.1235-1.9014.3706-.2559.1758-.3828.4028-.3828.6821,0,.2393.1113.4424.335.6099.3027.2236,1.3496.5386,3.1396.9448,1.79.4067,3.04.9053,3.75,1.4956.7012.5981,1.0527,1.4312,1.0527,2.5,0,1.1641-.4863,2.165-1.46,3.0024-.9727.8374-2.4121,1.2559-4.3174,1.2559-1.7305,0-3.1006-.3511-4.1094-1.0527-1.0088-.7017-1.6689-1.6548-1.9795-2.8589Z" style="fill:#fff;"/><path d="M469.281,159.7562l3.373-.5142c.1436.6538.4346,1.1504.873,1.4893s1.0527.5083,1.8428.5083c.8691,0,1.5225-.1597,1.9609-.4785.2949-.2231.4434-.5225.4434-.897,0-.2554-.0801-.4668-.2393-.6343-.168-.1592-.543-.3066-1.125-.4424-2.7109-.5981-4.4297-1.1445-5.1553-1.6387-1.0049-.686-1.5068-1.6392-1.5068-2.8589,0-1.1006.4346-2.0259,1.3037-2.7754s2.2168-1.1245,4.043-1.1245c1.7383,0,3.0303.2832,3.876.8496.8447.5664,1.4268,1.4033,1.7461,2.5117l-3.1699.5864c-.1357-.4946-.3926-.8735-.7715-1.1367s-.9189-.3945-1.6211-.3945c-.8848,0-1.5186.1235-1.9014.3706-.2559.1758-.3828.4028-.3828.6821,0,.2393.1113.4424.335.6099.3027.2236,1.3496.5386,3.1396.9448,1.79.4067,3.04.9053,3.75,1.4956.7012.5981,1.0527,1.4312,1.0527,2.5,0,1.1641-.4863,2.165-1.46,3.0024-.9727.8374-2.4121,1.2559-4.3174,1.2559-1.7305,0-3.1006-.3511-4.1094-1.0527-1.0088-.7017-1.6689-1.6548-1.9795-2.8589Z" style="fill:#fff;"/><path d="M502.8366,156.9335l3.4326,1.0884c-.5264,1.9141-1.4014,3.3354-2.626,4.2642-1.2236.9292-2.7764,1.3936-4.6592,1.3936-2.3281,0-4.2422-.7954-5.7412-2.3862-1.499-1.5908-2.249-3.7656-2.249-6.5249,0-2.9189.7539-5.1855,2.2607-6.8003,1.5078-1.6152,3.4893-2.4224,5.9453-2.4224,2.1445,0,3.8877.6338,5.2275,1.9019.7969.7495,1.3955,1.8262,1.7939,3.2295l-3.5049.8374c-.207-.9092-.6396-1.627-1.2979-2.1528-.6582-.5264-1.457-.7896-2.3984-.7896-1.2998,0-2.3545.4663-3.1641,1.3994-.8096.9331-1.2139,2.4443-1.2139,4.5337,0,2.2168.3984,3.7959,1.1963,4.7368.7969.9409,1.834,1.4111,3.1104,1.4111.9404,0,1.75-.2988,2.4277-.897s1.1641-1.5391,1.46-2.8228Z" style="fill:#fff;"/><path d="M517.3757,163.3807v-1.9019c-.4629.6777-1.0713,1.2124-1.8242,1.603-.7539.3906-1.5498.5859-2.3867.5859-.8535,0-1.6191-.1875-2.2969-.562-.6777-.375-1.168-.9014-1.4707-1.5791-.3037-.6777-.4551-1.6147-.4551-2.811v-8.0386h3.3613v5.8374c0,1.7866.0615,2.8809.1855,3.2837.123.4028.3486.7217.6758.957s.7412.3525,1.2441.3525c.5742,0,1.0889-.1572,1.543-.4722s.7656-.7061.9326-1.1724c.168-.4663.252-1.6089.252-3.4272v-5.3589h3.3613v12.7036h-3.1221Z" style="fill:#fff;"/><path d="M523.7087,163.3807v-17.5361h3.3613v17.5361h-3.3613Z" style="fill:#fff;"/><path d="M536.071,150.6771v2.6797h-2.2969v5.1196c0,1.0366.0215,1.6406.0654,1.812.0439.1719.1436.313.2998.4248.1553.1118.3447.1675.5674.1675.3115,0,.7617-.1079,1.3525-.3228l.2871,2.6074c-.7822.335-1.667.5024-2.6562.5024-.6055,0-1.1523-.1016-1.6387-.3052-.4863-.2031-.8428-.4663-1.0703-.7896-.2275-.3228-.3848-.7593-.4727-1.3096-.0713-.3906-.1074-1.1802-.1074-2.3687v-5.5381h-1.543v-2.6797h1.543v-2.5239l3.373-1.9614v4.4854h2.2969Z" style="fill:#fff;"/><path d="M546.4958,163.3807v-1.9019c-.4629.6777-1.0713,1.2124-1.8242,1.603-.7539.3906-1.5498.5859-2.3867.5859-.8535,0-1.6191-.1875-2.2969-.562-.6777-.375-1.168-.9014-1.4707-1.5791-.3037-.6777-.4551-1.6147-.4551-2.811v-8.0386h3.3613v5.8374c0,1.7866.0615,2.8809.1855,3.2837.123.4028.3486.7217.6758.957s.7412.3525,1.2441.3525c.5742,0,1.0889-.1572,1.543-.4722s.7656-.7061.9326-1.1724c.168-.4663.252-1.6089.252-3.4272v-5.3589h3.3613v12.7036h-3.1221Z" style="fill:#fff;"/><path d="M556.0466,163.3807h-3.3613v-12.7036h3.1221v1.8062c.5342-.853,1.0146-1.415,1.4414-1.6865.4258-.271.9102-.4067,1.4531-.4067.7656,0,1.5029.2114,2.2129.6343l-1.041,2.9307c-.5664-.3667-1.0928-.5503-1.5791-.5503-.4707,0-.8691.1294-1.1963.3887-.3262.2593-.584.728-.7715,1.4053-.1875.6782-.2803,2.0977-.2803,4.2588v3.9233Z" style="fill:#fff;"/><path d="M569.4489,159.3378l3.3486.562c-.4307,1.228-1.1104,2.1631-2.0391,2.8052-.9287.6421-2.0918.9629-3.4873.9629-2.209,0-3.8437-.7217-4.9043-2.165-.8369-1.1562-1.2559-2.6157-1.2559-4.3779,0-2.1055.5508-3.7539,1.6514-4.9463,1.0996-1.1924,2.4912-1.7886,4.1738-1.7886,1.8906,0,3.3818.624,4.4736,1.8721,1.0928,1.248,1.6152,3.1602,1.5674,5.7358h-8.4209c.0234.9971.2949,1.7725.8135,2.3267s1.1641.8311,1.9375.8311c.5264,0,.9688-.1436,1.3281-.4307.3584-.2866.6299-.749.8135-1.3872ZM569.6403,155.9403c-.0244-.9727-.2754-1.7124-.7539-2.2188s-1.0605-.7598-1.7461-.7598c-.7344,0-1.3398.2676-1.8184.8018-.4785.5342-.7139,1.2598-.7061,2.1768h5.0244Z" style="fill:#fff;"/><path d="M574.2634,159.7562l3.373-.5142c.1436.6538.4346,1.1504.873,1.4893.4385.3389,1.0527.5083,1.8428.5083.8691,0,1.5225-.1597,1.9609-.4785.2949-.2231.4434-.5225.4434-.897,0-.2554-.0801-.4668-.2393-.6343-.168-.1592-.543-.3066-1.125-.4424-2.7109-.5981-4.4297-1.1445-5.1553-1.6387-1.0049-.686-1.5068-1.6392-1.5068-2.8589,0-1.1006.4346-2.0259,1.3037-2.7754s2.2168-1.1245,4.043-1.1245c1.7383,0,3.0303.2832,3.876.8496.8447.5664,1.4268,1.4033,1.7461,2.5117l-3.1699.5864c-.1357-.4946-.3926-.8735-.7715-1.1367s-.9189-.3945-1.6211-.3945c-.8848,0-1.5186.1235-1.9014.3706-.2559.1758-.3828.4028-.3828.6821,0,.2393.1113.4424.335.6099.3027.2236,1.3496.5386,3.1396.9448,1.79.4067,3.04.9053,3.75,1.4956.7012.5981,1.0527,1.4312,1.0527,2.5,0,1.1641-.4863,2.165-1.46,3.0024-.9727.8374-2.4121,1.2559-4.3174,1.2559-1.7305,0-3.1006-.3511-4.1094-1.0527s-1.6689-1.6548-1.9795-2.8589Z" style="fill:#fff;"/><path d="M595.1023,150.6771h1.8662v-.957c0-1.0684.1133-1.8657.3408-2.3921s.6455-.9551,1.2559-1.2861c.6104-.3306,1.3818-.4961,2.3145-.4961.957,0,1.8945.1436,2.8115.4307l-.4551,2.3442c-.5342-.1274-1.0488-.1914-1.543-.1914-.4863,0-.835.1138-1.0469.3408-.2109.2275-.3164.6641-.3164,1.3101v.897h2.5117v2.6436h-2.5117v10.0601h-3.3613v-10.0601h-1.8662v-2.6436Z" style="fill:#fff;"/><path d="M603.6843,156.8495c0-1.1162.2754-2.1968.8262-3.2417.5498-1.0444,1.3291-1.8418,2.3379-2.3921,1.0088-.5503,2.1357-.8257,3.3799-.8257,1.9209,0,3.4961.624,4.7246,1.8721,1.2275,1.248,1.8418,2.8252,1.8418,4.731,0,1.9219-.6201,3.5151-1.8594,4.7788-1.2402,1.2642-2.8018,1.896-4.6836,1.896-1.1641,0-2.2744-.2632-3.3311-.7896s-1.8604-1.2979-2.4102-2.3145c-.5508-1.0171-.8262-2.2549-.8262-3.7144ZM607.1296,157.0292c0,1.2598.2988,2.2246.8975,2.8945.5977.6699,1.335,1.0049,2.2129,1.0049.877,0,1.6123-.335,2.207-1.0049.5938-.6699.8906-1.6426.8906-2.9185,0-1.2441-.2969-2.2012-.8906-2.8711-.5947-.6699-1.3301-1.0049-2.207-1.0049-.8779,0-1.6152.335-2.2129,1.0049-.5986.6699-.8975,1.6348-.8975,2.895Z" style="fill:#fff;"/><path d="M622.3747,163.3807h-3.3613v-12.7036h3.1221v1.8062c.5342-.853,1.0146-1.415,1.4414-1.6865.4258-.271.9102-.4067,1.4531-.4067.7656,0,1.5029.2114,2.2129.6343l-1.041,2.9307c-.5664-.3667-1.0928-.5503-1.5791-.5503-.4707,0-.8691.1294-1.1963.3887-.3262.2593-.584.728-.7715,1.4053-.1875.6782-.2803,2.0977-.2803,4.2588v3.9233Z" style="fill:#fff;"/><path d="M644.0739,163.3807h-3.3613v-12.6675c-1.2285,1.1484-2.6758,1.9976-4.3428,2.5479v-3.0503c.8779-.2871,1.8301-.8315,2.8594-1.6328,1.0283-.8013,1.7344-1.7363,2.1172-2.8052h2.7275v17.6079Z" style="fill:#fff;"/><path d="M648.8757,158.871l3.3486-.3467c.0957.7578.3789,1.3574.8496,1.8003.4707.4424,1.0127.6636,1.627.6636.7012,0,1.2959-.2847,1.7822-.855s.7295-1.4297.7295-2.5776c0-1.0767-.2412-1.8843-.7236-2.4224-.4824-.5386-1.1104-.8076-1.8838-.8076-.9648,0-1.8301.4268-2.5957,1.2798l-2.7275-.3945,1.7227-9.127h8.8877v3.146h-6.3398l-.5264,2.9785c.749-.3745,1.5146-.562,2.2969-.562,1.4912,0,2.7549.542,3.792,1.6265,1.0361,1.085,1.5547,2.4922,1.5547,4.2227,0,1.4434-.4189,2.7314-1.2559,3.8638-1.1406,1.5474-2.7236,2.3203-4.749,2.3203-1.6191,0-2.9385-.4346-3.959-1.3037-1.0215-.8691-1.6309-2.0371-1.8301-3.5049Z" style="fill:#fff;"/><path d="M674.7751,163.3807v-7.3804l-6.4238-10.1558h4.1514l4.127,6.938,4.043-6.938h4.0791l-6.4482,10.1797v7.3564h-3.5283Z" style="fill:#fff;"/><path d="M692.2214,159.3378l3.3486.562c-.4307,1.228-1.1104,2.1631-2.0391,2.8052-.9287.6421-2.0918.9629-3.4873.9629-2.209,0-3.8438-.7217-4.9043-2.165-.8369-1.1562-1.2559-2.6157-1.2559-4.3779,0-2.1055.5508-3.7539,1.6514-4.9463,1.0996-1.1924,2.4912-1.7886,4.1738-1.7886,1.8906,0,3.3818.624,4.4736,1.8721,1.0928,1.248,1.6152,3.1602,1.5674,5.7358h-8.4209c.0234.9971.2949,1.7725.8135,2.3267s1.1641.8311,1.9375.8311c.5264,0,.9687-.1436,1.3281-.4307.3584-.2866.6299-.749.8135-1.3872ZM692.4128,155.9403c-.0244-.9727-.2754-1.7124-.7539-2.2188s-1.0605-.7598-1.7461-.7598c-.7344,0-1.3398.2676-1.8184.8018-.4785.5342-.7139,1.2598-.7061,2.1768h5.0244Z" style="fill:#fff;"/><path d="M700.7321,154.5531l-3.0508-.5503c.3428-1.228.9336-2.1372,1.7705-2.7275.8379-.5898,2.082-.8853,3.7324-.8853,1.499,0,2.6152.1777,3.3496.5327.7334.3545,1.25.8052,1.5488,1.3516.2988.5464.4482,1.5488.4482,3.0083l-.0361,3.9233c0,1.1167.0547,1.9399.1621,2.4702s.3086,1.0986.6035,1.7046h-3.3252c-.0879-.2231-.1953-.5542-.3232-.9927-.0557-.1992-.0957-.3311-.1191-.395-.5742.5586-1.1885.9771-1.8418,1.2563-.6543.2788-1.3525.4185-2.0938.4185-1.3076,0-2.3389-.355-3.0918-1.0645-.7539-.71-1.1309-1.6069-1.1309-2.6914,0-.7178.1719-1.3579.5146-1.9199.3428-.5625.8232-.9932,1.4414-1.292s1.5088-.5601,2.6729-.7837c1.5713-.2949,2.6602-.5698,3.2656-.8252v-.335c0-.646-.1592-1.1064-.4785-1.3813-.3184-.2754-.9209-.4131-1.8057-.4131-.5986,0-1.0645.1182-1.3994.353-.335.2354-.6064.6479-.8135,1.2383ZM705.2292,157.2802c-.4307.1436-1.1123.3149-2.0449.5146-.9336.1992-1.543.3945-1.8301.5859-.4385.311-.6582.7056-.6582,1.1841,0,.4707.1758.8774.5264,1.2202.3506.3428.7979.5142,1.3398.5142.6055,0,1.1846-.1992,1.7344-.5981.4072-.3027.6738-.6733.8018-1.1123.0869-.2871.1309-.833.1309-1.6387v-.6699Z" style="fill:#fff;"/><path d="M714.7937,163.3807h-3.3613v-12.7036h3.1221v1.8062c.5342-.853,1.0146-1.415,1.4414-1.6865.4258-.271.9102-.4067,1.4531-.4067.7656,0,1.5029.2114,2.2129.6343l-1.041,2.9307c-.5664-.3667-1.0928-.5503-1.5791-.5503-.4707,0-.8691.1294-1.1963.3887-.3262.2593-.584.728-.7715,1.4053-.1875.6782-.2803,2.0977-.2803,4.2588v3.9233Z" style="fill:#fff;"/><path d="M719.655,159.7562l3.373-.5142c.1436.6538.4346,1.1504.873,1.4893s1.0527.5083,1.8428.5083c.8691,0,1.5225-.1597,1.9609-.4785.2949-.2231.4434-.5225.4434-.897,0-.2554-.0801-.4668-.2393-.6343-.168-.1592-.543-.3066-1.125-.4424-2.7109-.5981-4.4297-1.1445-5.1553-1.6387-1.0049-.686-1.5068-1.6392-1.5068-2.8589,0-1.1006.4346-2.0259,1.3037-2.7754s2.2168-1.1245,4.043-1.1245c1.7383,0,3.0303.2832,3.876.8496.8447.5664,1.4268,1.4033,1.7461,2.5117l-3.1699.5864c-.1357-.4946-.3926-.8735-.7715-1.1367-.3789-.2632-.9189-.3945-1.6211-.3945-.8848,0-1.5186.1235-1.9014.3706-.2559.1758-.3828.4028-.3828.6821,0,.2393.1113.4424.335.6099.3027.2236,1.3496.5386,3.1396.9448,1.79.4067,3.04.9053,3.75,1.4956.7012.5981,1.0527,1.4312,1.0527,2.5,0,1.1641-.4863,2.165-1.46,3.0024-.9727.8374-2.4121,1.2559-4.3174,1.2559-1.7305,0-3.1006-.3511-4.1094-1.0527-1.0088-.7017-1.6689-1.6548-1.9795-2.8589Z" style="fill:#fff;"/><path d="M27.1039,76.446c-2.9142,10.4233-4.559,21.3471-4.7915,32.6285L0,98.9015c.7509-9.0466,2.2884-17.8786,4.559-26.4245l22.5449,3.969Z" style="fill:#fff;"/><path d="M43.6774,39.9379c-5.6675,8.6533-10.3339,18.0038-13.838,27.9085l-22.7417-4.0048c4.0943-12.5508,9.7797-24.4221,16.8059-35.3282l19.7737,11.4245Z" style="fill:#fff;"/><path d="M41.9224,6.3842c-.152-.1253-.2812-.2688-.4198-.405-4.4872,4.769-8.6776,9.8226-12.5394,15.1325l19.8632,11.478c3.1835-4.2162,6.6248-8.2299,10.2864-12.0305l-17.1905-14.1751Z" style="fill:#fff;"/><path d="M207.4218,63.3768l-10.0611,10.0335c10.8085,10.4486,17.5897,25.0214,17.5897,41.1856,0,31.6227-25.6623,58.2505-57.285,58.2505-25.0214,0-41.5068-12.6347-53.0071-31.7642,0,0,2.9352,14.6757,6.2587,20.7686,9.4248,17.2788,25.039,24.3495,46.6698,24.3495,39.4696,0,71.5905-32.1209,71.5905-71.6043,0-20.0946-8.3728-38.224-21.7553-51.2191Z" style="fill:#fff;"/><path d="M100.6752,153.0807c-4.6415-11.6969-4.2721-24.1067-4.257-36.4359.0443-36.1921.0145-72.3843-.001-108.5764V1.192h-50.2136l17.7191,14.6106h7.6335c1.1867.0228,2.6797-.0057,4.5849.0029,5.5291.0249,5.6349.1059,5.6313,5.7344-.0176,27.0593-.257,54.1206.0239,81.1766.102,9.8278.648,19.7827,2.3739,29.4323,2.9341,16.4046,12.4147,29.0311,25.7328,39.755-3.3504-6.7543-6.7591-12.6022-9.2278-18.8232Z" style="fill:#fff;"/><path d="M100.6752,153.0807c-4.6415-11.6969-4.2721-24.1067-4.257-36.4359.0443-36.1921.0145-72.3843-.001-108.5764V1.192h-50.2136l17.7191,14.6106h7.6335c1.1867.0228,2.6797-.0057,4.5849.0029,5.5291.0249,5.6349.1059,5.6313,5.7344-.0176,27.0593-.257,54.1206.0239,81.1766.102,9.8278.648,19.7827,2.3739,29.4323,2.9341,16.4046,12.4147,29.0311,25.7328,39.755-3.3504-6.7543-6.7591-12.6022-9.2278-18.8232Z" style="fill:#fff;"/><path d="M212.4203,12.5424c.042-1.3542-.0101-3.1576,0-5.6126V1.192h-107.7491v15.2248h.0015c-.0087,18.1599-.0123,36.3193,0,54.4912h-.0145v28.9773c8.1616-23.3725,30.2052-40.2735,56.3223-40.2735,10.7183,0,20.6712,3.0624,29.3962,8.0316l10.8918-10.9062c-11.6429-7.5116-25.4426-12.3368-40.2879-11.9752-22.3019.5433-38.9591,11.0073-40.8081,11.8452-.1011-2.109-.2166-3.4813-.2166-4.8681-.0145-9.895-.0289-19.7756,0-29.6707.0145-5.5181.13-5.6481,5.7492-5.6481,12.4783-.0071,24.9565-.0038,37.4346-.0035h43.893c.2639.001.5351.0019.774,0h4.6137v-3.8744Z" style="fill:#fff;"/><path d="M212.4203,12.5424c.042-1.3542-.0101-3.1576,0-5.6126V1.192h-107.7491v15.2248h.0015c-.0087,18.1599-.0123,36.3193,0,54.4912h-.0145v28.9773c8.1616-23.3725,30.2052-40.2735,56.3223-40.2735,10.7183,0,20.6712,3.0624,29.3962,8.0316l10.8918-10.9062c-11.6429-7.5116-25.4426-12.3368-40.2879-11.9752-22.3019.5433-38.9591,11.0073-40.8081,11.8452-.1011-2.109-.2166-3.4813-.2166-4.8681-.0145-9.895-.0289-19.7756,0-29.6707.0145-5.5181.13-5.6481,5.7492-5.6481,12.4783-.0071,24.9565-.0038,37.4346-.0035h43.893c.2639.001.5351.0019.774,0h4.6137v-3.8744Z" style="fill:#fff;"/></g></g></svg>